<?xml version="1.0" encoding="utf-8"?>
<!-- Generator: Adobe Illustrator 26.0.2, SVG Export Plug-In . SVG Version: 6.00 Build 0)  -->
<svg version="1.1" id="Calque_1" xmlns="http://www.w3.org/2000/svg" xmlns:xlink="http://www.w3.org/1999/xlink" x="0px" y="0px"
	 viewBox="0 0 31 31" enable-background="new 0 0 31 31" xml:space="preserve">
<g>
	<path id="path2072" fill="#006666" stroke="#676767" stroke-width="0.6104" stroke-linecap="round" stroke-miterlimit="3.6733" d="
		M30.5,15.5c0,8.2843-6.7157,15-15,15s-15-6.7157-15-15s6.7157-15,15-15S30.5,7.2157,30.5,15.5z"/>
	<path id="text3021" fill="#FFFFFF" d="M10.1471,20.772V10.664h1.995V20.772H10.1471z M20.7539,15.6146l-1.9666,0.3447
		c-0.0663-0.3815-0.2165-0.6688-0.4508-0.8619c-0.2343-0.1931-0.5384-0.2896-0.9123-0.2896c-0.497,0-0.8934,0.1666-1.1892,0.4999
		c-0.2958,0.3333-0.4437,0.8906-0.4437,1.672c0,0.8688,0.1503,1.4824,0.4508,1.841c0.3005,0.3585,0.704,0.5378,1.2105,0.5378
		c0.3786,0,0.6886-0.1046,0.93-0.3137c0.2414-0.2091,0.4118-0.5688,0.5112-1.0791l1.9595,0.3241
		c-0.2035,0.8734-0.594,1.533-1.1714,1.9789c-0.5774,0.4459-1.3513,0.6688-2.3216,0.6688c-1.1028,0-1.982-0.3379-2.6375-1.0136
		c-0.6555-0.6757-0.9833-1.6111-0.9833-2.8063c0-1.2089,0.3289-2.1501,0.9868-2.8235c0.6579-0.6734,1.5477-1.0101,2.6694-1.0101
		c0.9182,0,1.6483,0.1919,2.1902,0.5757C20.1279,14.2436,20.5172,14.8285,20.7539,15.6146L20.7539,15.6146z"/>
</g>
</svg>
