<?xml version="1.0" encoding="utf-8"?>
<!-- Generator: Adobe Illustrator 27.6.1, SVG Export Plug-In . SVG Version: 6.00 Build 0)  -->
<svg version="1.1" id="svg6218" xmlns:svg="http://www.w3.org/2000/svg"
	 xmlns="http://www.w3.org/2000/svg" xmlns:xlink="http://www.w3.org/1999/xlink" x="0px" y="0px" width="150px" height="187px"
	 viewBox="0 0 150 187" style="enable-background:new 0 0 150 187;" xml:space="preserve">
<style type="text/css">
	.st0{opacity:0.3;fill:#FFFFFF;enable-background:new    ;}
	.st1{fill:#333333;}
	.st2{font-family:'TimesNewRomanPS-ItalicMT';}
	.st3{font-size:17.6809px;}
	.st4{stroke:#676767;stroke-width:0.6167;stroke-linecap:round;stroke-miterlimit:3.6733;}
	.st5{fill:#FFFFFF;}
	.st6{fill:#CC3333;}
	.st7{fill:none;stroke:#000000;stroke-width:0.5894;stroke-miterlimit:10;}
	.st8{font-family:'TimesNewRomanPS-BoldMT';}
	.st9{font-size:20.0384px;}
</style>
<polygon class="st0" points="141.1,183.6 9,183.6 9,38.1 13.1,34.5 66.2,34.5 74.2,30.9 84.1,34.5 134.9,34.5 136.9,34.5 
	141.1,38.5 "/>
<path id="JasmineUPC_bracket_00000137100359014030561760000015095619018842295198_" class="st1" d="M26,35.5
	c-4.9,0-8.7,0.3-11.5,0.8c-2.8,0.6-4.8,1.5-5.9,2.8c0-1.8,0.8-3.2,2.3-4.2c1.6-1,4-1.7,7.3-2c3.3-0.4,7.8-0.6,13.4-0.6h25.7
	c3.4,0,6.2-0.1,8.2-0.2c2-0.2,3.8-0.5,5.4-1.1c2.1-0.9,3.2-1.7,3.4-2.5c1,1.2,2.8,2.1,5.6,2.8c2.6,0.6,6.5,1,11.7,1h29.1
	c8.3,0,13.8,0.6,16.5,1.7c2.7,1.1,4.1,2.8,4.1,5.1c-1.5-1.4-3.5-2.3-6.1-2.9c-2.6-0.5-6.4-0.8-11.3-0.8H94.2
	c-5.8,0-10.3-0.3-13.4-0.8c-3.1-0.6-5.3-1.6-6.5-3.2c-1.1,1.6-3.4,2.7-6.7,3.3c-3.3,0.5-8.1,0.8-14.4,0.8C53.2,35.5,26,35.5,26,35.5
	z"/>
<g>
	<text transform="matrix(0.9 0 0 1 86.417 133.0313)" class="st2 st3">Éteint</text>
	<text transform="matrix(0.9 0 0 1 80.5669 152.0313)" class="st2 st3">à l&apos;état</text>
	<text transform="matrix(0.9 0 0 1 72.147 170.0313)" class="st2 st3">sauvage</text>
</g>
<g>
	<g>
		<path id="path13406" class="st4" d="M116.1,63.5c0,8.4-6.8,15.2-15.2,15.2s-15.1-6.9-15.1-15.2s6.8-15.2,15.2-15.2
			S116.1,55.1,116.1,63.5z"/>
		<path id="text13438" class="st5" d="M89.7,68.8V58.6h7.8v1.7h-5.7v2.3h5.3v1.7h-5.3v2.8h5.9v1.7C97.7,68.8,89.7,68.8,89.7,68.8z
			 M100.9,68.8l-2.5-10.2h2.2l1.6,7l1.9-7h2.5l1.8,7.1l1.6-7.1h2.1l-2.6,10.2h-2.3l-2.1-7.6l-2.1,7.6H100.9z"/>
	</g>
	<g>
		<path id="path13404" class="st4" d="M61.1,64.5c0,8.4-6.8,15.2-15.2,15.2s-15.2-6.8-15.2-15.2s6.8-15.2,15.2-15.2
			S61.1,56.1,61.1,64.5z"/>
		<path id="text13434" class="st6" d="M36.7,69.8V59.6h7.8v1.7h-5.7v2.3h5.3v1.7h-5.3v2.8h5.9v1.7C44.7,69.8,36.7,69.8,36.7,69.8z
			 M45.5,69.8l3.6-5.3l-3.3-4.9h2.5l2.1,3.3l2.1-3.3H55l-3.3,5l3.6,5.3h-2.6l-2.3-3.5l-2.3,3.5L45.5,69.8L45.5,69.8z"/>
	</g>
	<line class="st7" x1="100.9" y1="78.5" x2="100.9" y2="112.3"/>
	<line class="st7" x1="46" y1="79.7" x2="46" y2="94.3"/>
</g>
<text transform="matrix(0.9 0 0 1 21.9873 109.4391)" class="st2 st3">Éteint</text>
<g>
	<text transform="matrix(1 0 0 1 49.8324 22.8904)" class="st8 st9">Éteint</text>
</g>
</svg>
