<?xml version="1.0" encoding="utf-8"?>
<!-- Generator: Adobe Illustrator 26.0.2, SVG Export Plug-In . SVG Version: 6.00 Build 0)  -->
<svg version="1.1" id="Calque_1" xmlns="http://www.w3.org/2000/svg" xmlns:xlink="http://www.w3.org/1999/xlink" x="0px" y="0px"
	 viewBox="0 0 31 31" enable-background="new 0 0 31 31" xml:space="preserve">
<g>
	<path id="path2476" fill="#006666" stroke="#676767" stroke-width="0.6104" stroke-linecap="round" stroke-miterlimit="3.6733" d="
		M30.5,15.5c0,8.2843-6.7157,15-15,15s-15-6.7157-15-15s6.7157-15,15-15S30.5,7.2157,30.5,15.5z"/>
	<path id="text2478" fill="#99CC99" d="M14.7902,15.6145l-1.9666,0.3447c-0.0663-0.3815-0.2165-0.6688-0.4508-0.8619
		c-0.2343-0.1931-0.5384-0.2896-0.9123-0.2896c-0.497,0-0.8934,0.1666-1.1892,0.4999c-0.2958,0.3333-0.4437,0.8906-0.4437,1.672
		c0,0.8688,0.1503,1.4824,0.4508,1.841c0.3005,0.3585,0.704,0.5378,1.2105,0.5378c0.3786,0,0.6886-0.1046,0.93-0.3137
		c0.2414-0.2091,0.4118-0.5688,0.5112-1.0791l1.9595,0.3241c-0.2035,0.8734-0.594,1.533-1.1714,1.9789
		c-0.5774,0.4459-1.3513,0.6688-2.3216,0.6688c-1.1028,0-1.982-0.3379-2.6375-1.0136c-0.6555-0.6757-0.9833-1.6111-0.9833-2.8063
		c0-1.2089,0.329-2.1501,0.9868-2.8235c0.6579-0.6734,1.5477-1.0101,2.6694-1.0101c0.9182,0,1.6483,0.1919,2.1902,0.5757
		C14.1643,14.2436,14.5536,14.8285,14.7902,15.6145L14.7902,15.6145z M23.2245,20.772h-1.853v-1.0756
		c-0.3077,0.4183-0.6709,0.7297-1.0898,0.9343c-0.4189,0.2045-0.8413,0.3068-1.2673,0.3068c-0.8662,0-1.6081-0.339-2.2257-1.017
		c-0.6177-0.678-0.9265-1.6238-0.9265-2.8373c0-1.2411,0.3006-2.1846,0.9016-2.8304c0.6011-0.6458,1.3608-0.9687,2.279-0.9687
		c0.8425,0,1.5714,0.3402,2.1867,1.0205v-3.6406h1.995V20.772z M17.8998,16.9522c0,0.7814,0.1112,1.3468,0.3337,1.6962
		c0.3219,0.5056,0.7715,0.7585,1.3489,0.7584c0.4591,0,0.8496-0.1896,1.1714-0.5688c0.3218-0.3792,0.4827-0.9458,0.4828-1.6996
		c0-0.8412-0.1562-1.4468-0.4686-1.8168c-0.3124-0.37-0.7123-0.555-1.1998-0.555c-0.4733,0-0.8697,0.1827-1.1892,0.5482
		C18.0595,15.68,17.8998,16.2259,17.8998,16.9522L17.8998,16.9522z"/>
</g>
</svg>
