<?xml version="1.0" encoding="utf-8"?>
<!-- Generator: Adobe Illustrator 26.0.2, SVG Export Plug-In . SVG Version: 6.00 Build 0)  -->
<svg version="1.1" id="Calque_1" xmlns="http://www.w3.org/2000/svg" xmlns:xlink="http://www.w3.org/1999/xlink" x="0px" y="0px"
	 viewBox="0 0 31 31" enable-background="new 0 0 31 31" xml:space="preserve">
<g>
	
		<path id="path13408" fill="#CC3333" stroke="#676767" stroke-width="0.6104" stroke-linecap="round" stroke-miterlimit="3.6733" d="
		M30.5,15.5c0,8.2843-6.7157,15-15,15s-15-6.7157-15-15s6.7157-15,15-15S30.5,7.2157,30.5,15.5z"/>
	<path id="text13442" fill="#FFCCCC" d="M12.4082,17.0556l2.0376,0.6274c-0.3124,1.1032-0.8318,1.9226-1.5584,2.4581
		c-0.7265,0.5355-1.6483,0.8033-2.7653,0.8033c-1.3821,0-2.518-0.4585-3.4078-1.3756c-0.8898-0.917-1.3347-2.1708-1.3347-3.7612
		c0-1.6824,0.4473-2.989,1.3418-3.9198c0.8945-0.9308,2.0707-1.3962,3.5285-1.3962c1.2732,0,2.3073,0.3654,3.1025,1.0963
		c0.4733,0.4321,0.8283,1.0526,1.0649,1.8616l-2.0802,0.4827c-0.1231-0.524-0.3798-0.9377-0.7703-1.2411
		c-0.3905-0.3034-0.865-0.4551-1.4235-0.4551c-0.7715,0-1.3974,0.2689-1.8778,0.8067c-0.4804,0.5378-0.7206,1.4089-0.7206,2.6132
		c0,1.2779,0.2366,2.188,0.71,2.7304C8.7283,18.9288,9.3436,19.2,10.1009,19.2c0.5585,0,1.0389-0.1724,1.4412-0.5171
		C11.9444,18.3381,12.2331,17.7957,12.4082,17.0556L12.4082,17.0556z M16.2633,20.772V10.664h4.423
		c1.1123,0,1.9204,0.0908,2.4245,0.2724c0.5041,0.1816,0.9075,0.5045,1.2105,0.9687c0.3029,0.4643,0.4544,0.9952,0.4544,1.5927
		c0,0.7585-0.2296,1.3848-0.6887,1.8789c-0.4591,0.4941-1.1454,0.8056-2.0589,0.9343c0.4544,0.2574,0.8295,0.5401,1.1253,0.8481
		c0.2958,0.308,0.6946,0.855,1.1963,1.641l1.2708,1.972h-2.5132l-1.5193-2.1995c-0.5396-0.786-0.9087-1.2813-1.1075-1.4859
		c-0.1988-0.2045-0.4094-0.3447-0.6319-0.4206c-0.2225-0.0758-0.5751-0.1138-1.0578-0.1138h-0.426v4.2197H16.2633z M18.3648,14.9389
		h1.5548c1.0081,0,1.6376-0.0414,1.8885-0.1241c0.2508-0.0827,0.4473-0.2252,0.5893-0.4275c0.142-0.2022,0.213-0.4551,0.213-0.7584
		c0-0.3401-0.0935-0.6148-0.2804-0.824c-0.187-0.2091-0.4508-0.3413-0.7916-0.3965c-0.1704-0.023-0.6816-0.0345-1.5335-0.0345h-1.64
		V14.9389z"/>
</g>
</svg>
