<?xml version="1.0" encoding="utf-8"?>
<!-- Generator: Adobe Illustrator 26.0.2, SVG Export Plug-In . SVG Version: 6.00 Build 0)  -->
<svg version="1.1" id="Calque_1" xmlns="http://www.w3.org/2000/svg" xmlns:xlink="http://www.w3.org/1999/xlink" x="0px" y="0px"
	 viewBox="0 0 45 38" enable-background="new 0 0 45 38" xml:space="preserve">
<g>
	<path fill="#CBDE9D" d="M24.5942,36.7613H4.4608c-1.65,0-3-1.35-3-3V4.2947c0-1.65,1.35-3,3-3h20.1333c1.65,0,3,1.35,3,3v29.4667
		C27.5942,35.4113,26.2442,36.7613,24.5942,36.7613z"/>
	<path d="M17.1026,31.7885c0.359,0,0.6731,0.3141,0.6731,0.6731c0,0.359-0.3141,0.6731-0.6731,0.6731H8.1282
		c-0.359,0-0.6731-0.3141-0.6731-0.6731c0-0.359,0.3141-0.6731,0.6731-0.6731H17.1026z M6.3333,21.9167
		c-0.359,0-0.6731,0.3141-0.6731,0.6731c0,0.359,0.3141,0.6731,0.6731,0.6731s0.6731-0.3141,0.6731-0.6731
		C7.0064,22.2308,6.6923,21.9167,6.3333,21.9167z M6.3333,28.5128c-0.359,0-0.6731,0.3141-0.6731,0.6731
		s0.3141,0.6731,0.6731,0.6731s0.6731-0.3141,0.6731-0.6731S6.6923,28.5128,6.3333,28.5128z M6.3333,31.7885
		c-0.359,0-0.6731,0.3141-0.6731,0.6731c0,0.359,0.3141,0.6731,0.6731,0.6731s0.6731-0.3141,0.6731-0.6731
		C7.0064,32.1026,6.6923,31.7885,6.3333,31.7885z M6.3333,25.1923c-0.359,0-0.6731,0.3141-0.6731,0.6731
		c0,0.359,0.3141,0.6731,0.6731,0.6731s0.6731-0.3141,0.6731-0.6731C7.0064,25.5064,6.6923,25.1923,6.3333,25.1923z
		 M20.9167,33.1346c0.359,0,0.6731-0.3141,0.6731-0.6731c0-0.359-0.3141-0.6731-0.6731-0.6731c-0.359,0-0.6731,0.3141-0.6731,0.6731
		C20.2436,32.8205,20.5128,33.1346,20.9167,33.1346z M18.4487,32.4615c0,0.359,0.3141,0.6731,0.6731,0.6731
		c0.359,0,0.6731-0.3141,0.6731-0.6731c0-0.359-0.3141-0.6731-0.6731-0.6731C18.7628,31.7885,18.4487,32.1026,18.4487,32.4615z
		 M23.2949,32.7756c-0.359-0.2244-0.7179-0.5385-1.0321-0.8077c-0.1346,0.1346-0.2692,0.3141-0.2692,0.5385
		c0,0.359,0.3141,0.6731,0.6731,0.6731C22.9808,33.1346,23.2051,33,23.2949,32.7756z M8.1282,28.5128
		c-0.359,0-0.6731,0.3141-0.6731,0.6731s0.3141,0.6731,0.6731,0.6731h12.5192c-0.2244-0.4487-0.4487-0.8974-0.5833-1.3462H8.1282z
		 M8.1282,25.1923c-0.359,0-0.6731,0.3141-0.6731,0.6731c0,0.359,0.3141,0.6731,0.6731,0.6731h11.4872
		c-0.0449-0.2692-0.0449-0.5833-0.0449-0.8526c0-0.1795,0-0.3141,0.0449-0.4936C19.6154,25.1923,8.1282,25.1923,8.1282,25.1923z
		 M20.4231,21.9167H8.1282c-0.359,0-0.6731,0.3141-0.6731,0.6731c0,0.359,0.3141,0.6731,0.6731,0.6731h11.7564
		C20.0641,22.8141,20.2436,22.3654,20.4231,21.9167z M27.2885,34.1667c-0.359,1.2115-1.4808,2.109-2.782,2.109H4.7628
		c-1.6154,0-2.9167-1.3013-2.9167-2.9167V4.641c0-1.6154,1.3013-2.9167,2.9167-2.9167h19.7436c1.6154,0,2.9167,1.3013,2.9167,2.9167
		v12.5641c0.2244,0,0.4487-0.0449,0.6731-0.0449c0.2244,0,0.4487,0,0.6731,0.0449V4.641c0-2.3333-1.9295-4.2628-4.2628-4.2628
		H4.7628C2.4295,0.3782,0.5,2.3077,0.5,4.641V33.359c0,2.3333,1.9295,4.2628,4.2628,4.2628h19.7436
		c2.0641,0,3.8141-1.4808,4.1731-3.4103c-0.1795,0-0.4038,0.0449-0.5833,0.0449C27.8269,34.2115,27.5577,34.2115,27.2885,34.1667z"
		/>
	
		<rect x="5.7535" y="5.4994" fill="none" stroke="#000000" stroke-width="0.7434" stroke-miterlimit="10" width="9.3178" height="10.9764"/>
</g>
<g>
	<path d="M40.494,11.1477c-5.3696-5.8436-14.4881-6.2291-20.3317-0.8595s-6.2291,14.488-0.8595,20.3316
		c5.3696,5.8436,14.4881,6.2291,20.3317,0.8595C45.4781,26.1097,45.8636,16.9913,40.494,11.1477z M37.8643,29.5528
		c-4.752,4.3665-12.2686,4.0487-16.6351-0.7032c-4.3664-4.7519-4.0487-12.2685,0.7032-16.6349
		c4.752-4.3665,12.2686-4.0487,16.6351,0.7032C42.993,17.734,42.6163,25.1864,37.8643,29.5528z"/>
	<path fill="#FFFFFF" d="M38.5676,12.9179c-4.3665-4.7519-11.8831-5.0697-16.6351-0.7032
		c-4.7519,4.3664-5.0696,11.883-0.7032,16.6349c4.3665,4.752,11.8831,5.0697,16.6351,0.7032
		C42.6163,25.1864,42.993,17.734,38.5676,12.9179z M29.6605,27.9715c-2.055,1.8883-5.2587,1.7528-7.1469-0.3021
		c-1.8882-2.0549-1.7528-5.2586,0.3021-7.1469l2.6971-2.4782l1.7702,1.9264l-2.6971,2.4783
		c-0.9632,0.8851-1.031,2.487-0.1458,3.4502c0.9441,1.0274,2.4228,1.0899,3.4502,0.1458l2.6971-2.4783l1.7702,1.9265
		L29.6605,27.9715z M29.1139,23.3811c-0.5137,0.472-1.3763,0.4356-1.8483-0.0782c-0.472-0.5137-0.4356-1.3763,0.0781-1.8483
		l3.3392-3.0683c0.5137-0.472,1.3763-0.4356,1.8483,0.0782c0.472,0.5137,0.4356,1.3763-0.0782,1.8483L29.1139,23.3811z
		 M36.9811,21.2449l-2.6971,2.4782l-1.7702-1.9264l2.6971-2.4783c0.9632-0.8851,1.031-2.487,0.1458-3.4502
		c-0.8851-0.9632-2.487-1.0309-3.4502-0.1458l-2.6971,2.4783l-1.7702-1.9265l2.6971-2.4782
		c1.9907-1.8292,5.2587-1.7528,7.1469,0.3021C39.1714,16.1529,39.036,19.3567,36.9811,21.2449z"/>
	<path d="M37.2832,14.098c-1.8882-2.055-5.1562-2.1314-7.1469-0.3021l-2.6971,2.4782l1.7702,1.9265l2.6971-2.4783
		c0.9633-0.8851,2.5652-0.8174,3.4502,0.1458c0.8851,0.9633,0.8174,2.5652-0.1458,3.4502l-2.6971,2.4783l1.7702,1.9264
		l2.6971-2.4782C39.036,19.3567,39.1714,16.1529,37.2832,14.098z"/>
	<path d="M27.8903,26.0451c-1.0274,0.9441-2.5061,0.8816-3.4502-0.1458c-0.8851-0.9633-0.8174-2.5652,0.1458-3.4502l2.6971-2.4783
		l-1.7702-1.9264l-2.6971,2.4782c-2.0549,1.8883-2.1903,5.092-0.3021,7.1469c1.8882,2.0549,5.092,2.1904,7.1469,0.3021l2.697-2.4782
		l-1.7702-1.9265L27.8903,26.0451z"/>
	<path d="M32.5313,18.4644c-0.472-0.5137-1.3346-0.5502-1.8483-0.0782l-3.3392,3.0683c-0.5137,0.472-0.5502,1.3346-0.0781,1.8483
		c0.472,0.5137,1.3346,0.5502,1.8483,0.0782l3.3392-3.0683C32.9668,19.8407,33.0033,18.9781,32.5313,18.4644z"/>
</g>
</svg>
