<?xml version="1.0" encoding="utf-8"?>
<!-- Generator: Adobe Illustrator 27.6.1, SVG Export Plug-In . SVG Version: 6.00 Build 0)  -->
<svg version="1.1" id="svg6218" xmlns:svg="http://www.w3.org/2000/svg"
	 xmlns="http://www.w3.org/2000/svg" xmlns:xlink="http://www.w3.org/1999/xlink" x="0px" y="0px" width="190px" height="187px"
	 viewBox="0 0 190 187" style="enable-background:new 0 0 190 187;" xml:space="preserve">
<style type="text/css">
	.st0{opacity:0.3;fill:#FFFFFF;enable-background:new    ;}
	.st1{fill:#333333;}
	.st2{font-family:'TimesNewRomanPS-ItalicMT';}
	.st3{font-size:17.6809px;}
	.st4{fill:#CC9900;stroke:#676767;stroke-width:0.6167;stroke-linecap:round;stroke-miterlimit:3.6733;}
	.st5{fill:#FFFFCC;}
	.st6{fill:#CC6633;stroke:#676767;stroke-width:0.6168;stroke-linecap:round;stroke-miterlimit:3.6733;}
	.st7{fill:#FFCC99;}
	.st8{fill:#CC3333;stroke:#676767;stroke-width:0.6167;stroke-linecap:round;stroke-miterlimit:3.6733;}
	.st9{fill:#FFCCCC;}
	.st10{fill:none;stroke:#000000;stroke-width:0.5894;stroke-miterlimit:10;}
	.st11{font-family:'TimesNewRomanPS-BoldMT';}
	.st12{font-size:20.0384px;}
</style>
<g>
	<polygon class="st0" points="184.5,183.4 5.5,183.4 5.5,38 10.1,34.3 86.2,34.3 94.1,30.8 103.9,34.3 177.9,34.3 179.8,34.3 
		184.5,38.8 	"/>
	<path id="JasmineUPC_bracket" class="st1" d="M29,35.4c-6.6,0-11.8,0.3-15.6,0.8c-3.8,0.6-6.5,1.5-8,2.8c0-1.8,1.1-3.2,3.2-4.2
		c2.1-1,5.4-1.7,9.9-2c4.5-0.4,10.5-0.6,18.1-0.6h34.7c4.6,0,8.3-0.1,11-0.2c2.7-0.2,5.2-0.5,7.4-1.1c2.8-0.9,4.3-1.7,4.6-2.5
		c1.3,1.2,3.8,2.1,7.5,2.8c3.5,0.6,8.8,1,15.8,1h39.3c11.3,0,18.7,0.6,22.3,1.7c3.7,1.1,5.5,2.8,5.5,5.1c-2-1.4-4.7-2.3-8.3-2.9
		c-3.5-0.5-8.6-0.8-15.2-0.8h-40c-7.9,0-13.9-0.3-18.1-0.8c-4.2-0.6-7.1-1.6-8.8-3.2c-1.5,1.6-4.5,2.7-9,3.3
		c-4.5,0.5-10.9,0.8-19.5,0.8C65.7,35.4,29,35.4,29,35.4z"/>
	<text transform="matrix(0.9 0 0 1 106.6047 152.8531)" class="st2 st3">Vulnérable</text>
	<g>
		<text transform="matrix(0.9 0 0 1 14.5071 132.0309)" class="st2 st3">En danger</text>
		<text transform="matrix(0.9 0 0 1 14.5071 151.0309)" class="st2 st3">critique</text>
		<text transform="matrix(0.9 0 0 1 14.5071 170.0309)" class="st2 st3">d&apos;extinction</text>
	</g>
	<text transform="matrix(0.9 0 0 1 62.3625 110.4566)" class="st2 st3">En danger</text>
	<g>
		<g>
			<path id="path13412" class="st4" d="M162.2,65.2c0,8.4-6.8,15.2-15.2,15.2s-15.2-6.8-15.2-15.2S138.6,50,147,50
				S162.2,56.8,162.2,65.2z"/>
			<path id="text13426" class="st5" d="M141.1,70.5l-3.8-10.2h2.3l2.7,7.6l2.6-7.6h2.3l-3.8,10.2H141.1z M148.2,60.3h2.1v5.5
				c0,0.9,0,1.4,0.1,1.7c0.1,0.4,0.3,0.8,0.6,1s0.8,0.4,1.4,0.4s1.1-0.1,1.4-0.4c0.3-0.2,0.5-0.5,0.6-0.9s0.1-0.9,0.1-1.7v-5.6h2.1
				v5.4c0,1.2-0.1,2.1-0.2,2.6s-0.3,0.9-0.6,1.3c-0.3,0.3-0.7,0.6-1.2,0.8c-0.5,0.2-1.2,0.3-2,0.3c-1,0-1.8-0.1-2.3-0.3
				c-0.5-0.2-0.9-0.5-1.2-0.9c-0.3-0.4-0.5-0.7-0.6-1.1c-0.1-0.6-0.2-1.4-0.2-2.6L148.2,60.3L148.2,60.3z"/>
		</g>
		<g>
			<path id="path13410" class="st6" d="M110.7,65.2c0,8.4-6.8,15.2-15.2,15.2s-15.2-6.8-15.2-15.2S87.2,50,95.5,50
				C103.9,50,110.7,56.8,110.7,65.2z"/>
			<path id="text13430" class="st7" d="M86.5,70.5V60.3h7.8V62h-5.7v2.3h5.3V66h-5.3v2.8h5.9v1.7H86.5z M96.3,70.5V60.3h2.1l4.3,6.8
				v-6.8h2v10.2h-2.1l-4.2-6.7v6.7H96.3z"/>
		</g>
		<g>
			<path id="path13408" class="st8" d="M59.2,65.2c0,8.4-6.8,15.2-15.2,15.2s-15.2-6.8-15.2-15.2S35.7,50,44,50
				C52.4,50,59.2,56.8,59.2,65.2z"/>
			<path id="text13442" class="st9" d="M40.9,66.7l2.1,0.6c-0.3,1.1-0.8,1.9-1.6,2.5c-0.7,0.5-1.7,0.8-2.8,0.8
				c-1.4,0-2.5-0.5-3.4-1.4s-1.3-2.2-1.3-3.8c0-1.7,0.5-3,1.4-4c0.9-0.9,2.1-1.4,3.6-1.4c1.3,0,2.3,0.4,3.1,1.1
				c0.5,0.4,0.8,1.1,1.1,1.9L41,63.5c-0.1-0.5-0.4-0.9-0.8-1.3c-0.4-0.3-0.9-0.5-1.4-0.5c-0.8,0-1.4,0.3-1.9,0.8s-0.7,1.4-0.7,2.6
				c0,1.3,0.2,2.2,0.7,2.8s1.1,0.8,1.9,0.8c0.6,0,1-0.2,1.5-0.5C40.4,68,40.7,67.5,40.9,66.7L40.9,66.7z M44.8,70.5V60.3h4.5
				c1.1,0,1.9,0.1,2.4,0.3s0.9,0.5,1.2,1s0.5,1,0.5,1.6c0,0.8-0.2,1.4-0.7,1.9s-1.2,0.8-2.1,0.9c0.5,0.3,0.8,0.5,1.1,0.9
				c0.3,0.3,0.7,0.9,1.2,1.7l1.3,2h-2.5l-1.5-2.2c-0.5-0.8-0.9-1.3-1.1-1.5c-0.2-0.2-0.4-0.3-0.6-0.4c-0.2-0.1-0.6-0.1-1.1-0.1H47
				v4.3h-2.2V70.5z M46.9,64.6h1.6c1,0,1.7,0,1.9-0.1c0.3-0.1,0.5-0.2,0.6-0.4s0.2-0.5,0.2-0.8s-0.1-0.6-0.3-0.8s-0.5-0.3-0.8-0.4
				c-0.2,0-0.7,0-1.5,0h-1.7V64.6z"/>
		</g>
		<line class="st10" x1="147" y1="80.1" x2="147" y2="137.2"/>
		<line class="st10" x1="43.2" y1="80.4" x2="43.2" y2="113.8"/>
		<line class="st10" x1="95.5" y1="96.5" x2="95.5" y2="80.3"/>
	</g>
	<g>
		<text transform="matrix(1 0 0 1 57.8281 22.7586)" class="st11 st12">Menacé</text>
	</g>
</g>
</svg>
