<?xml version="1.0" encoding="utf-8"?>
<!-- Generator: Adobe Illustrator 27.6.1, SVG Export Plug-In . SVG Version: 6.00 Build 0)  -->
<svg version="1.1" id="svg6218" xmlns:svg="http://www.w3.org/2000/svg"
	 xmlns="http://www.w3.org/2000/svg" xmlns:xlink="http://www.w3.org/1999/xlink" x="0px" y="0px" width="150px" height="187px"
	 viewBox="0 0 150 187" style="enable-background:new 0 0 150 187;" xml:space="preserve">
<style type="text/css">
	.st0{opacity:0.3;fill:#FFFFFF;enable-background:new    ;}
	.st1{fill:#333333;}
	.st2{font-family:'TimesNewRomanPS-ItalicMT';}
	.st3{font-size:17.6809px;}
	.st4{fill:#006666;stroke:#676767;stroke-width:0.6167;stroke-linecap:round;stroke-miterlimit:3.6733;}
	.st5{fill:#99CC99;}
	.st6{fill:#FFFFFF;}
	.st7{fill:none;stroke:#000000;stroke-width:0.5894;stroke-miterlimit:10;}
	.st8{font-family:'TimesNewRomanPS-BoldMT';}
	.st9{font-size:20.0384px;}
</style>
<g>
	<polygon class="st0" points="142.3,183.8 10.1,183.8 10.1,38.3 14.3,34.6 67.4,34.6 75.3,31.1 85.2,34.6 136.1,34.6 138.1,34.6 
		142.3,38.7 	"/>
	<path id="JasmineUPC_bracket_00000183962092511342494420000008201908423333086639_" class="st1" d="M27.3,35.7
		c-4.9,0-8.7,0.3-11.5,0.8C13,37.1,11,38,9.9,39.3c0-1.8,0.8-3.2,2.3-4.2c1.6-1,4-1.7,7.3-2c3.3-0.4,7.8-0.6,13.4-0.6h25.7
		c3.4,0,6.2-0.1,8.2-0.2c2-0.2,3.8-0.5,5.4-1.1c2.1-0.9,3.2-1.7,3.4-2.5c1,1.2,2.8,2.1,5.6,2.8c2.6,0.6,6.5,1,11.7,1H122
		c8.3,0,13.8,0.6,16.5,1.7c2.7,1.1,4.1,2.8,4.1,5.1c-1.5-1.4-3.5-2.3-6.1-2.9c-2.6-0.5-6.4-0.8-11.3-0.8H95.6
		c-5.8,0-10.3-0.3-13.4-0.8c-3.1-0.6-5.3-1.6-6.5-3.2c-1.1,1.6-3.4,2.7-6.7,3.3c-3.3,0.5-8.1,0.8-14.4,0.8
		C54.6,35.7,27.3,35.7,27.3,35.7z"/>
	<g>
		<text transform="matrix(0.9 0 0 1 20.2466 108.7633)" class="st2 st3">Quasi</text>
		<text transform="matrix(0.9 0 0 1 20.2466 127.7633)" class="st2 st3">menacée</text>
	</g>
	<g>
		<text transform="matrix(0.9 0 0 1 33.314 152.1402)" class="st2 st3">Préoccupation</text>
		<text transform="matrix(0.9 0 0 1 76.6035 171.1402)" class="st2 st3">mineure</text>
	</g>
	<g>
		<g>
			<path id="path13414" class="st4" d="M63.7,63.8c0,8.4-6.8,15.2-15.2,15.2s-15.2-6.8-15.2-15.2s6.8-15.2,15.2-15.2
				S63.7,55.5,63.7,63.8z"/>
			<path id="text1899" class="st5" d="M49.2,69.2h-2v-3.8c0-0.8,0-1.3-0.1-1.5s-0.2-0.4-0.4-0.5s-0.4-0.2-0.7-0.2s-0.7,0.1-0.9,0.3
				c-0.3,0.2-0.5,0.4-0.6,0.7c-0.1,0.3-0.2,0.9-0.2,1.7v3.4h-2v-7.4h1.9V63c0.7-0.8,1.5-1.3,2.5-1.3c0.4,0,0.9,0.1,1.2,0.2
				c0.4,0.2,0.6,0.4,0.8,0.6c0.2,0.2,0.3,0.5,0.4,0.8c0.1,0.3,0.1,0.7,0.1,1.3V69.2z M54.7,61.8v1.6h-1.4v3c0,0.6,0,1,0,1.1
				s0.1,0.2,0.2,0.2c0.1,0.1,0.2,0.1,0.3,0.1c0.2,0,0.5-0.1,0.8-0.2l0.2,1.5c-0.5,0.2-1,0.3-1.6,0.3c-0.4,0-0.7-0.1-1-0.2
				s-0.5-0.3-0.6-0.5s-0.2-0.4-0.3-0.8c0-0.2-0.1-0.7-0.1-1.4v-3.2h-0.9v-1.6h0.9v-1.5l2-1.1v2.6h1.5V61.8z"/>
		</g>
		<g>
			<path id="path2072" class="st4" d="M116.6,63.8c0,8.4-6.8,15.2-15.2,15.2s-15.2-6.8-15.2-15.2s6.8-15.2,15.2-15.2
				C109.8,48.7,116.6,55.5,116.6,63.8z"/>
			<path id="text3021" class="st6" d="M96,69.2V58.9h2v10.2L96,69.2L96,69.2z M106.7,63.9l-2,0.3c-0.1-0.4-0.2-0.7-0.5-0.9
				c-0.2-0.2-0.5-0.3-0.9-0.3c-0.5,0-0.9,0.2-1.2,0.5s-0.4,0.9-0.4,1.7c0,0.9,0.2,1.5,0.5,1.9s0.7,0.5,1.2,0.5
				c0.4,0,0.7-0.1,0.9-0.3c0.2-0.2,0.4-0.6,0.5-1.1l2,0.3c-0.2,0.9-0.6,1.5-1.2,2c-0.6,0.5-1.4,0.7-2.3,0.7c-1.1,0-2-0.3-2.7-1
				s-1-1.6-1-2.8c0-1.2,0.3-2.2,1-2.9s1.6-1,2.7-1c0.9,0,1.7,0.2,2.2,0.6C106.1,62.6,106.5,63.1,106.7,63.9L106.7,63.9z"/>
		</g>
		<line class="st7" x1="48.6" y1="79" x2="48.6" y2="94.5"/>
		<line class="st7" x1="101.4" y1="137.5" x2="101.4" y2="79.2"/>
	</g>
	<g>
		<text transform="matrix(1 0 0 1 5.423 23.0652)" class="st8 st9">Risque moindre</text>
	</g>
</g>
</svg>
