<?xml version="1.0" encoding="utf-8"?>
<!-- Generator: Adobe Illustrator 26.0.2, SVG Export Plug-In . SVG Version: 6.00 Build 0)  -->
<svg version="1.1" id="svg6218" xmlns:svg="http://www.w3.org/2000/svg"
	 xmlns="http://www.w3.org/2000/svg" xmlns:xlink="http://www.w3.org/1999/xlink" x="0px" y="0px" viewBox="0 0 340 381.7"
	 style="enable-background:new 0 0 340 381.7;" xml:space="preserve">
<style type="text/css">
	.st0{opacity:0.2;fill:#FFFFFF;}
	.st1{fill:#333333;}
	.st2{font-family:'Roboto-LightItalic';}
	.st3{font-size:17.6809px;}
	.st4{stroke:#676767;stroke-width:0.6167;stroke-linecap:round;stroke-miterlimit:3.6733;}
	.st5{fill:#FFFFFF;}
	.st6{fill:#CC3333;}
	.st7{fill:none;stroke:#000000;stroke-width:0.5894;stroke-miterlimit:10;}
	.st8{fill:#CC9900;stroke:#676767;stroke-width:0.6167;stroke-linecap:round;stroke-miterlimit:3.6733;}
	.st9{fill:#FFFFCC;}
	.st10{fill:#CC6633;stroke:#676767;stroke-width:0.6168;stroke-linecap:round;stroke-miterlimit:3.6733;}
	.st11{fill:#FFCC99;}
	.st12{fill:#CC3333;stroke:#676767;stroke-width:0.6167;stroke-linecap:round;stroke-miterlimit:3.6733;}
	.st13{fill:#FFCCCC;}
	.st14{font-family:'Roboto-Regular';}
	.st15{font-size:20.0384px;}
	.st16{fill:#006666;stroke:#676767;stroke-width:0.6167;stroke-linecap:round;stroke-miterlimit:3.6733;}
	.st17{fill:#99CC99;}
</style>
<polygon class="st0" points="142.7,183.6 19.7,183.6 19.7,38.1 23.6,34.5 73,34.5 80.4,30.9 89.6,34.5 137,34.5 138.8,34.5 
	142.7,38.5 "/>
<polygon class="st0" points="321.9,183.6 153.9,183.6 153.9,38.1 158.2,34.5 229.6,34.5 237,30.9 246.2,34.5 315.6,34.5 317.5,34.5 
	321.9,38.9 "/>
<path id="JasmineUPC_bracket" class="st1" d="M175.9,35.5c-6.2,0-11.1,0.3-14.6,0.8c-3.6,0.6-6.1,1.5-7.5,2.8c0-1.8,1-3.2,3-4.2
	c2-1,5.1-1.7,9.3-2c4.2-0.4,9.9-0.6,17-0.6h32.6c4.4,0,7.8-0.1,10.4-0.2c2.6-0.2,4.9-0.5,6.9-1.1c2.6-0.9,4-1.7,4.3-2.5
	c1.3,1.2,3.6,2.1,7.1,2.8c3.3,0.6,8.2,1,14.8,1h36.9c10.6,0,17.5,0.6,21,1.7c3.5,1.1,5.2,2.8,5.2,5.1c-1.9-1.4-4.4-2.3-7.8-2.9
	c-3.3-0.5-8.1-0.8-14.3-0.8h-37.5c-7.4,0-13.1-0.3-17-0.8c-3.9-0.6-6.7-1.6-8.2-3.2c-1.5,1.6-4.3,2.7-8.4,3.3
	c-4.2,0.5-10.3,0.8-18.3,0.8H175.9z"/>
<path id="JasmineUPC_bracket_00000137100359014030561760000015095619018842295198_" class="st1" d="M35.6,35.5
	c-4.6,0-8.1,0.3-10.7,0.8c-2.6,0.6-4.4,1.5-5.5,2.8c0-1.8,0.7-3.2,2.2-4.2c1.5-1,3.7-1.7,6.8-2c3.1-0.4,7.2-0.6,12.5-0.6h23.9
	c3.2,0,5.7-0.1,7.6-0.2c1.9-0.2,3.6-0.5,5.1-1.1c1.9-0.9,3-1.7,3.1-2.5c0.9,1.2,2.6,2.1,5.2,2.8c2.4,0.6,6,1,10.9,1h27.1
	c7.8,0,12.9,0.6,15.4,1.7c2.5,1.1,3.8,2.8,3.8,5.1c-1.4-1.4-3.3-2.3-5.7-2.9c-2.4-0.5-5.9-0.8-10.5-0.8H99.1
	c-5.4,0-9.6-0.3-12.5-0.8c-2.9-0.6-4.9-1.6-6-3.2c-1.1,1.6-3.1,2.7-6.2,3.3c-3.1,0.5-7.5,0.8-13.4,0.8H35.6z"/>
<text transform="matrix(0.9 0 0 1 247.0303 152.9851)" class="st2 st3">Vulnérable</text>
<text transform="matrix(0.9 0 0 1 90.6924 109.4392)"><tspan x="0" y="0" class="st2 st3">Éteint</tspan><tspan x="-3.2" y="21.2" class="st2 st3">à l&apos;état</tspan><tspan x="-10.1" y="42.4" class="st2 st3">sauvage</tspan></text>
<g>
	<g>
		<path id="path13406" class="st4" d="M123.8,63.5c0,8.4-6.8,15.2-15.2,15.2s-15.2-6.8-15.2-15.2s6.8-15.2,15.2-15.2
			S123.8,55.1,123.8,63.5z"/>
		<path id="text13438" class="st5" d="M97.4,68.8V58.6h7.8v1.7h-5.7v2.3h5.3v1.7h-5.3v2.8h5.9v1.7H97.4z M108.7,68.8l-2.5-10.2h2.2
			l1.6,7l1.9-7h2.5l1.8,7.1l1.6-7.1h2.1l-2.6,10.2h-2.3l-2.1-7.6l-2.1,7.6H108.7z"/>
	</g>
	<g>
		<path id="path13404" class="st4" d="M68.9,64.5c0,8.4-6.8,15.2-15.2,15.2s-15.2-6.8-15.2-15.2s6.8-15.2,15.2-15.2
			S68.9,56.1,68.9,64.5z"/>
		<path id="text13434" class="st6" d="M44.5,69.8V59.6h7.8v1.7h-5.7v2.3h5.3v1.7h-5.3v2.8h5.9v1.7H44.5z M53.2,69.8l3.6-5.3
			l-3.3-4.9h2.5l2.1,3.3l2.1-3.3h2.5l-3.3,5l3.6,5.3h-2.6l-2.3-3.5l-2.3,3.5H53.2z"/>
	</g>
	<line class="st7" x1="108.7" y1="78.5" x2="108.7" y2="94.3"/>
	<line class="st7" x1="53.8" y1="79.7" x2="53.8" y2="94.3"/>
</g>
<text transform="matrix(0.9 0 0 1 156.9326 132.1628)"><tspan x="0" y="0" class="st2 st3">En danger</tspan><tspan x="0" y="21.2" class="st2 st3">critique</tspan><tspan x="0" y="42.4" class="st2 st3">d&apos;extinction</tspan></text>
<text transform="matrix(0.9 0 0 1 204.7881 110.5886)" class="st2 st3">En danger</text>
<g>
	<g>
		<path id="path13412" class="st8" d="M304.5,65.3c0,8.4-6.8,15.2-15.2,15.2s-15.2-6.8-15.2-15.2s6.8-15.2,15.2-15.2
			S304.5,56.9,304.5,65.3z"/>
		<path id="text13426" class="st9" d="M283.5,70.6l-3.8-10.2h2.3l2.7,7.6l2.6-7.6h2.3l-3.8,10.2H283.5z M290.6,60.4h2.1V66
			c0,0.9,0,1.4,0.1,1.7c0.1,0.4,0.3,0.8,0.6,1c0.3,0.3,0.8,0.4,1.4,0.4c0.6,0,1.1-0.1,1.4-0.4c0.3-0.2,0.5-0.5,0.6-0.9
			c0.1-0.3,0.1-0.9,0.1-1.7v-5.6h2.1v5.4c0,1.2-0.1,2.1-0.2,2.6c-0.1,0.5-0.3,0.9-0.6,1.3c-0.3,0.3-0.7,0.6-1.2,0.8s-1.2,0.3-2,0.3
			c-1,0-1.8-0.1-2.3-0.3c-0.5-0.2-0.9-0.5-1.2-0.9c-0.3-0.4-0.5-0.7-0.6-1.1c-0.1-0.6-0.2-1.4-0.2-2.6V60.4z"/>
	</g>
	<g>
		<path id="path13410" class="st10" d="M253.1,65.3c0,8.4-6.8,15.2-15.2,15.2c-8.4,0-15.2-6.8-15.2-15.2s6.8-15.2,15.2-15.2
			C246.3,50.2,253.1,56.9,253.1,65.3z"/>
		<path id="text13430" class="st11" d="M228.8,70.6V60.4h7.8v1.7H231v2.3h5.3v1.7H231v2.8h5.9v1.7H228.8z M238.7,70.6V60.4h2.1
			l4.3,6.8v-6.8h2v10.2h-2.1l-4.2-6.7v6.7H238.7z"/>
	</g>
	<g>
		<path id="path13408" class="st12" d="M201.6,65.3c0,8.4-6.8,15.2-15.2,15.2c-8.4,0-15.2-6.8-15.2-15.2s6.8-15.2,15.2-15.2
			C194.8,50.2,201.6,56.9,201.6,65.3z"/>
		<path id="text13442" class="st13" d="M183.3,66.9l2.1,0.6c-0.3,1.1-0.8,1.9-1.6,2.5c-0.7,0.5-1.7,0.8-2.8,0.8
			c-1.4,0-2.5-0.5-3.4-1.4c-0.9-0.9-1.3-2.2-1.3-3.8c0-1.7,0.5-3,1.4-4c0.9-0.9,2.1-1.4,3.6-1.4c1.3,0,2.3,0.4,3.1,1.1
			c0.5,0.4,0.8,1.1,1.1,1.9l-2.1,0.5c-0.1-0.5-0.4-0.9-0.8-1.3c-0.4-0.3-0.9-0.5-1.4-0.5c-0.8,0-1.4,0.3-1.9,0.8
			c-0.5,0.5-0.7,1.4-0.7,2.6c0,1.3,0.2,2.2,0.7,2.8c0.5,0.5,1.1,0.8,1.9,0.8c0.6,0,1-0.2,1.5-0.5C182.8,68.2,183.1,67.6,183.3,66.9
			L183.3,66.9z M187.2,70.6V60.4h4.5c1.1,0,1.9,0.1,2.4,0.3c0.5,0.2,0.9,0.5,1.2,1c0.3,0.5,0.5,1,0.5,1.6c0,0.8-0.2,1.4-0.7,1.9
			c-0.5,0.5-1.2,0.8-2.1,0.9c0.5,0.3,0.8,0.5,1.1,0.9c0.3,0.3,0.7,0.9,1.2,1.7l1.3,2h-2.5l-1.5-2.2c-0.5-0.8-0.9-1.3-1.1-1.5
			s-0.4-0.3-0.6-0.4c-0.2-0.1-0.6-0.1-1.1-0.1h-0.4v4.3H187.2z M189.3,64.7h1.6c1,0,1.7,0,1.9-0.1c0.3-0.1,0.5-0.2,0.6-0.4
			c0.1-0.2,0.2-0.5,0.2-0.8c0-0.3-0.1-0.6-0.3-0.8c-0.2-0.2-0.5-0.3-0.8-0.4c-0.2,0-0.7,0-1.5,0h-1.7V64.7z"/>
	</g>
	<line class="st7" x1="289.4" y1="80.3" x2="289.4" y2="137.3"/>
	<line class="st7" x1="185.5" y1="80.5" x2="185.5" y2="113.9"/>
	<line class="st7" x1="237.9" y1="96.6" x2="237.9" y2="80.4"/>
</g>
<text transform="matrix(0.9 0 0 1 29.73 109.4392)" class="st2 st3">Éteint</text>
<g>
	<text transform="matrix(1 0 0 1 202.2539 22.8904)" class="st14 st15">Menacé</text>
</g>
<g>
	<text transform="matrix(1 0 0 1 55.5752 22.8904)" class="st14 st15">Éteint</text>
</g>
<polygon class="st0" points="231.1,370.8 108.1,370.8 108.1,225.4 112,221.7 161.4,221.7 168.8,218.2 178,221.7 225.4,221.7 
	227.2,221.7 231.1,225.7 "/>
<path id="JasmineUPC_bracket_00000183962092511342494420000008201908423333086639_" class="st1" d="M124.2,222.7
	c-4.6,0-8.1,0.3-10.7,0.8c-2.6,0.6-4.4,1.5-5.5,2.8c0-1.8,0.7-3.2,2.2-4.2c1.5-1,3.7-1.7,6.8-2c3.1-0.4,7.2-0.6,12.5-0.6h23.9
	c3.2,0,5.7-0.1,7.6-0.2c1.9-0.2,3.6-0.5,5.1-1.1c1.9-0.9,3-1.7,3.1-2.5c0.9,1.2,2.6,2.1,5.2,2.8c2.4,0.6,6,1,10.9,1h27.1
	c7.8,0,12.9,0.6,15.4,1.7c2.5,1.1,3.8,2.8,3.8,5.1c-1.4-1.4-3.3-2.3-5.7-2.9c-2.4-0.5-5.9-0.8-10.5-0.8h-27.6
	c-5.4,0-9.6-0.3-12.5-0.8c-2.9-0.6-4.9-1.6-6-3.2c-1.1,1.6-3.1,2.7-6.2,3.3c-3.1,0.5-7.5,0.8-13.4,0.8H124.2z"/>
<text transform="matrix(0.9 0 0 1 111.8829 295.8347)"><tspan x="0" y="0" class="st2 st3">Quasi</tspan><tspan x="0" y="21.2" class="st2 st3">menacée</tspan></text>
<text transform="matrix(0.9 0 0 1 127.9503 339.2117)"><tspan x="0" y="0" class="st2 st3">Préoccupation</tspan><tspan x="48.1" y="21.2" class="st2 st3">mineure</tspan></text>
<g>
	<g>
		<path id="path13414" class="st16" d="M158.3,250.9c0,8.4-6.8,15.2-15.2,15.2c-8.4,0-15.2-6.8-15.2-15.2c0-8.4,6.8-15.2,15.2-15.2
			C151.6,235.7,158.3,242.5,158.3,250.9z"/>
		<path id="text1899" class="st17" d="M143.8,256.2h-2v-3.8c0-0.8,0-1.3-0.1-1.5s-0.2-0.4-0.4-0.5c-0.2-0.1-0.4-0.2-0.7-0.2
			c-0.3,0-0.7,0.1-0.9,0.3c-0.3,0.2-0.5,0.4-0.6,0.7c-0.1,0.3-0.2,0.9-0.2,1.7v3.4h-2v-7.4h1.9v1.1c0.7-0.8,1.5-1.3,2.5-1.3
			c0.4,0,0.9,0.1,1.2,0.2c0.4,0.2,0.6,0.4,0.8,0.6c0.2,0.2,0.3,0.5,0.4,0.8c0.1,0.3,0.1,0.7,0.1,1.3V256.2z M149.4,248.8v1.6H148v3
			c0,0.6,0,1,0,1.1c0,0.1,0.1,0.2,0.2,0.2s0.2,0.1,0.3,0.1c0.2,0,0.5-0.1,0.8-0.2l0.2,1.5c-0.5,0.2-1,0.3-1.6,0.3
			c-0.4,0-0.7-0.1-1-0.2c-0.3-0.1-0.5-0.3-0.6-0.5c-0.1-0.2-0.2-0.4-0.3-0.8c0-0.2-0.1-0.7-0.1-1.4v-3.2H145v-1.6h0.9v-1.5l2-1.1
			v2.6H149.4z"/>
	</g>
	<g>
		<path id="path2072" class="st16" d="M211.2,250.9c0,8.4-6.8,15.2-15.2,15.2s-15.2-6.8-15.2-15.2c0-8.4,6.8-15.2,15.2-15.2
			S211.2,242.5,211.2,250.9z"/>
		<path id="text3021" class="st5" d="M190.7,256.2V246h2v10.2H190.7z M201.4,251l-2,0.3c-0.1-0.4-0.2-0.7-0.5-0.9
			c-0.2-0.2-0.5-0.3-0.9-0.3c-0.5,0-0.9,0.2-1.2,0.5c-0.3,0.3-0.4,0.9-0.4,1.7c0,0.9,0.2,1.5,0.5,1.9c0.3,0.4,0.7,0.5,1.2,0.5
			c0.4,0,0.7-0.1,0.9-0.3c0.2-0.2,0.4-0.6,0.5-1.1l2,0.3c-0.2,0.9-0.6,1.5-1.2,2c-0.6,0.5-1.4,0.7-2.3,0.7c-1.1,0-2-0.3-2.7-1
			c-0.7-0.7-1-1.6-1-2.8c0-1.2,0.3-2.2,1-2.9c0.7-0.7,1.6-1,2.7-1c0.9,0,1.7,0.2,2.2,0.6C200.8,249.6,201.1,250.2,201.4,251
			L201.4,251z"/>
	</g>
	<line class="st7" x1="143.2" y1="266" x2="143.2" y2="281.6"/>
	<line class="st7" x1="196.1" y1="324.6" x2="196.1" y2="266.3"/>
</g>
<g>
	<text transform="matrix(1 0 0 1 100.0596 210.1365)" class="st14 st15">Risque moindre</text>
</g>
</svg>
