<?xml version="1.0" encoding="utf-8"?>
<!-- Generator: Adobe Illustrator 26.0.2, SVG Export Plug-In . SVG Version: 6.00 Build 0)  -->
<svg version="1.1" id="Calque_1" xmlns="http://www.w3.org/2000/svg" xmlns:xlink="http://www.w3.org/1999/xlink" x="0px" y="0px"
	 viewBox="0 0 31 31" enable-background="new 0 0 31 31" xml:space="preserve">
<g>
	
		<path id="path13414" fill="#006666" stroke="#676767" stroke-width="0.6104" stroke-linecap="round" stroke-miterlimit="3.6733" d="
		M30.5,15.5c0,8.2843-6.7157,15-15,15s-15-6.7157-15-15s6.7157-15,15-15S30.5,7.2157,30.5,15.5z"/>
	<path id="text1899" fill="#99CC99" d="M16.1107,20.772h-1.995v-3.7371c0-0.7906-0.0426-1.302-0.1278-1.5341
		c-0.0852-0.2321-0.2236-0.4125-0.4153-0.5413c-0.1917-0.1287-0.4224-0.1931-0.6922-0.1931c-0.3455,0-0.6555,0.0919-0.93,0.2758
		c-0.2745,0.1839-0.4627,0.4275-0.5644,0.7309c-0.1018,0.3034-0.1527,0.8642-0.1526,1.6824v3.3165h-1.995v-7.3225h1.853v1.0756
		c0.6579-0.8274,1.4862-1.2411,2.4848-1.2411c0.4402,0,0.8425,0.077,1.2069,0.231c0.3644,0.154,0.6401,0.3505,0.8271,0.5895
		c0.187,0.239,0.3171,0.5102,0.3905,0.8136c0.0734,0.3034,0.1101,0.7378,0.1101,1.3032V20.772z M21.5987,13.4495v1.5445h-1.3631
		v2.9511c0,0.5976,0.013,0.9458,0.0391,1.0446c0.026,0.0988,0.0852,0.1804,0.1775,0.2448c0.0923,0.0644,0.2047,0.0965,0.3372,0.0965
		c0.1846,0,0.452-0.0621,0.8022-0.1862l0.1704,1.5031c-0.4638,0.1931-0.9892,0.2896-1.5761,0.2896
		c-0.3597,0-0.6839-0.0586-0.9726-0.1758c-0.2887-0.1172-0.5005-0.2689-0.6354-0.4551c-0.1349-0.1862-0.2284-0.4378-0.2804-0.755
		c-0.0426-0.2252-0.0639-0.6803-0.0639-1.3652V14.994h-0.9158v-1.5445h0.9158v-1.4548l2.0021-1.1308v2.5856H21.5987z"/>
</g>
</svg>
