<?xml version="1.0" encoding="utf-8"?>
<!-- Generator: Adobe Illustrator 26.0.2, SVG Export Plug-In . SVG Version: 6.00 Build 0)  -->
<svg version="1.1" id="Calque_1" xmlns="http://www.w3.org/2000/svg" xmlns:xlink="http://www.w3.org/1999/xlink" x="0px" y="0px"
	 viewBox="0 0 31 31" enable-background="new 0 0 31 31" xml:space="preserve">
<g>
	
		<path id="path13412" fill="#CC9900" stroke="#676767" stroke-width="0.6104" stroke-linecap="round" stroke-miterlimit="3.6733" d="
		M30.5,15.5c0,8.2843-6.7157,15-15,15s-15-6.7157-15-15s6.7157-15,15-15S30.5,7.2157,30.5,15.5z"/>
	<path id="text13426" fill="#FFFFCC" d="M9.6892,20.772L5.969,10.6639h2.279l2.6339,7.4811l2.5487-7.4811H15.66L11.9327,20.772
		H9.6892z M16.732,10.6639h2.1015v5.4746c0,0.8688,0.026,1.4319,0.0781,1.6893c0.0899,0.4137,0.3041,0.7458,0.6425,0.9963
		c0.3384,0.2505,0.8011,0.3758,1.388,0.3758c0.5964,0,1.046-0.1184,1.3489-0.3551c0.3029-0.2367,0.4851-0.5275,0.5467-0.8722
		c0.0615-0.3447,0.0923-0.917,0.0923-1.7169v-5.5919h2.1015v5.3092c0,1.2135-0.0568,2.0708-0.1704,2.5718
		c-0.1136,0.501-0.3231,0.9239-0.6283,1.2687c-0.3053,0.3448-0.7135,0.6194-1.2247,0.824
		c-0.5112,0.2045-1.1785,0.3068-2.0021,0.3068c-0.9939,0-1.7477-0.1115-2.2612-0.3344c-0.5135-0.2229-0.9194-0.5125-1.2176-0.8688
		c-0.2982-0.3562-0.4946-0.7297-0.5893-1.1204c-0.1373-0.5792-0.2059-1.4342-0.2059-2.5649V10.6639z"/>
</g>
</svg>
